# xmcd
#
# Track frame offsets: 
#        150
#        17996
#        33722
#        55936
#        68063
#        87185
#        105288
#        117724
#        137026
#        149759
#        166016
#        196435
#
# Disc length: 2817 seconds
#
# Revision: 0
# Processed by: cddbd v1.5.2PL0 Copyright (c) Steve Scherf et al.
# Submitted via: ExactAudioCopy v1.2
#
DISCID=ad0aff0c
DTITLE=Papa Don McMinn - The Pale Prince Of Beale Street
DYEAR=2016
DGENRE=Blues
TTITLE0=Last Night Baby And The Night Before
TTITLE1=Black Guitar
TTITLE2=Riding On The Euro Rail
TTITLE3=If You Got It, I Can Get It
TTITLE4=Key In The Lock
TTITLE5=When Marley Got The Blues
TTITLE6=Mr. Crump
TTITLE7=Junior's Place
TTITLE8=Bad Blood
TTITLE9=Miss You Like The Devil
TTITLE10=My Love Light's Shining Again
TTITLE11=Hummingbird
EXTD=
EXTT0=
EXTT1=
EXTT2=
EXTT3=
EXTT4=
EXTT5=
EXTT6=
EXTT7=
EXTT8=
EXTT9=
EXTT10=
EXTT11=
PLAYORDER=
